#!OML:ASF X:\für Bonn\!DataBase\2005_08_11_Bastian_Final\c3d\Bastian.ASF
:FULLY-SPECIFIED
:DEGREES
115
root -0.159492 11.6516 6.72287 168.337 -8.77129 -177.42
lowerback 22.8275 -2.29105 -0.111795
upperback 5.70302 -4.10627 -0.430518
thorax -6.47597 -2.431 0.786249
lowerneck -9.43828 -8.59413 -3.8747
upperneck -8.75829 -9.75658 11.7989
head -0.321223 -4.33838 4.22817
rclavicle 1.3418e-014 -2.10712e-014
rhumerus 70.2711 12.6831 0.971845
rradius 41.7334
rwrist -52.3002
rhand -42.6491 -6.19273
rfingers 7.12502
rthumb -15.5204 -35.5898
lclavicle 1.3418e-014 -2.10712e-014
lhumerus 64.3457 -15.1351 -5.34027
lradius 31.6793
lwrist 4.66366
lhand -42.9669 11.0737
lfingers 7.12502
lthumb -15.8265 40.4468
rfemur -40.2434 -11.2912 27.9716
rtibia 112.245
rfoot -49.4896 -18.378
rtoes -5.01674
lfemur -42.8815 -0.297904 -17.5232
ltibia 113.716
lfoot -43.9708 -13.409
ltoes -5.35392
116
root -0.159628 11.8465 6.73264 168.593 -8.86366 -177.52
lowerback 22.6254 -2.29955 -0.233948
upperback 5.68187 -4.13261 -0.445827
thorax -6.3886 -2.43802 0.834517
lowerneck -9.71563 -8.56574 -3.78732
upperneck -8.62218 -9.72498 11.7923
head -0.237198 -4.30987 4.19644
rclavicle -2.0276e-014 -1.43125e-014
rhumerus 70.2288 12.9457 0.134172
rradius 41.584
rwrist -51.6328
rhand -42.6354 -5.89805
rfingers 7.12502
rthumb -15.5072 -35.2962
lclavicle -2.0276e-014 -1.43125e-014
lhumerus 64.2348 -15.2715 -4.93131
lradius 31.7697
lwrist 4.65047
lhand -43.1584 10.9044
lfingers 7.12502
lthumb -16.0109 40.2628
rfemur -39.6306 -10.904 27.7519
rtibia 110.344
rfoot -48.8534 -18.2392
rtoes -4.9678
lfemur -42.1383 -0.597579 -17.7074
ltibia 111.672
lfoot -43.4993 -13.2131
ltoes -5.00696
117
root -0.160561 12.0411 6.7428 168.832 -8.95772 -177.591
lowerback 22.4185 -2.31265 -0.319465
upperback 5.67581 -4.15779 -0.446735
thorax -6.28319 -2.44641 0.87623
lowerneck -10.0287 -8.54271 -3.73258
upperneck -8.45392 -9.7023 11.7903
head -0.133692 -4.28348 4.17007
rclavicle 2.38542e-015 1.27222e-014
rhumerus 70.1798 13.2066 -0.639938
rradius 41.4765
rwrist -51.086
rhand -42.6643 -5.54859
rfingers 7.12502
rthumb -15.5351 -34.9446
lclavicle 2.38542e-015 1.27222e-014
lhumerus 64.0909 -15.3793 -4.34933
lradius 31.8623
lwrist 4.55792
lhand -43.2563 10.6333
lfingers 7.12502
lthumb -16.1051 39.9841
rfemur -38.9904 -10.5435 27.5635
rtibia 108.404
rfoot -48.199 -18.1031
rtoes -4.9744
lfemur -41.3671 -0.879495 -17.8524
ltibia 109.576
lfoot -42.9938 -13.0441
ltoes -4.67255
118
root -0.16182 12.2511 6.75289 169.085 -9.03051 -177.689
lowerback 22.2475 -2.30861 -0.447343
upperback 5.6464 -4.16712 -0.444448
thorax -6.21874 -2.445 0.943982
lowerneck -10.3103 -8.51479 -3.68357
upperneck -8.30026 -9.67247 11.7924
head -0.0403443 -4.2548 4.14874
rclavicle 1.63003e-014 -1.78906e-014
rhumerus 70.1306 13.4995 -1.07266
rradius 41.5185
rwrist -50.9247
rhand -42.8179 -5.20314
rfingers 7.12502
rthumb -15.683 -34.5876
lclavicle 1.63003e-014 -1.78906e-014
lhumerus 63.9395 -15.4909 -3.72196
lradius 31.9534
lwrist 4.36245
lhand -43.3035 10.3855
lfingers 7.12502
lthumb -16.1506 39.7326
rfemur -38.26 -10.167 27.3266
rtibia 106.334
rfoot -47.5111 -17.879
rtoes -4.79892
lfemur -40.5035 -1.11089 -18.0186
ltibia 107.334
lfoot -42.4416 -12.8672
ltoes -4.33298
